Normalized EMG Linear Envelopes
nRows=267
nColumns=4

endheader
time	 med_gas_r	  soleus_r	 tib_ant_r	
4.35758	  0.043489	  0.062071	  0.016942	
4.39085	  0.047488	  0.060760	  0.017566	
4.42411	  0.055269	  0.061642	  0.018148	
4.45738	  0.069278	  0.065974	  0.018728	
4.49064	  0.092032	  0.075446	  0.019486	
4.5239	  0.125217	  0.091746	  0.020761	
4.55717	  0.168767	  0.115832	  0.023010	
4.59043	  0.220803	  0.147368	  0.026712	
4.6237	  0.278721	  0.184825	  0.032231	
4.65696	  0.340436	  0.226344	  0.039725	
4.69022	  0.404359	  0.270746	  0.049127	
4.72349	  0.467977	  0.317768	  0.060177	
4.75675	  0.526725	  0.367154	  0.072438	
4.79002	  0.575087	  0.417393	  0.085263	
4.82328	  0.609647	  0.465386	  0.097808	
4.85654	  0.631501	  0.507533	  0.109200	
4.88981	  0.645594	  0.541340	  0.118824	
4.92307	  0.657448	  0.566190	  0.126499	
4.95634	  0.670192	  0.582943	  0.132372	
4.9896	  0.684130	  0.593057	  0.136605	
5.02286	  0.698222	  0.598048	  0.139170	
5.05613	  0.711211	  0.599397	  0.139911	
5.08939	  0.721273	  0.598663	  0.138797	
5.12266	  0.725404	  0.597529	  0.136063	
5.15592	  0.720220	  0.597628	  0.132129	
5.18918	  0.704123	  0.600205	  0.127429	
5.22245	  0.678891	  0.605816	  0.122352	
5.25571	  0.649068	  0.614335	  0.117303	
5.28898	  0.619570	  0.625190	  0.112730	
5.32224	  0.593518	  0.637540	  0.109026	
5.3555	  0.571858	  0.650134	  0.106393	
5.38877	  0.554489	  0.661128	  0.104807	
5.42203	  0.541466	  0.668356	  0.104098	
5.4553	  0.533356	  0.670114	  0.104010	
5.48856	  0.531026	  0.665856	  0.104188	
5.52182	  0.535375	  0.656194	  0.104149	
5.55509	  0.546902	  0.642409	  0.103388	
5.58835	  0.564979	  0.626105	  0.101644	
5.62162	  0.587326	  0.609204	  0.099131	
5.65488	  0.610428	  0.593808	  0.096508	
5.68814	  0.630823	  0.581680	  0.094538	
5.72141	  0.646323	  0.573721	  0.093685	
5.75467	  0.656352	  0.569868	  0.093934	
5.78794	  0.661423	  0.569384	  0.094914	
5.8212	  0.662318	  0.571279	  0.096142	
5.85446	  0.659457	  0.574699	  0.097214	
5.88773	  0.652678	  0.579102	  0.097846	
5.92099	  0.641439	  0.583978	  0.097833	
5.95426	  0.625376	  0.588174	  0.097032	
5.98752	  0.604930	  0.589482	  0.095395	
6.02078	  0.581547	  0.585305	  0.093035	
6.05405	  0.557127	  0.574354	  0.090223	
6.08731	  0.533222	  0.558278	  0.087314	
6.12058	  0.510854	  0.541804	  0.084644	
6.15384	  0.491099	  0.530895	  0.082512	
6.1871	  0.475502	  0.529900	  0.081203	
6.22037	  0.465645	  0.539378	  0.080948	
6.25363	  0.462349	  0.555818	  0.081759	
6.2869	  0.465458	  0.573237	  0.083288	
6.32016	  0.474241	  0.585571	  0.084888	
6.35342	  0.487663	  0.588674	  0.085894	
6.38669	  0.504216	  0.581408	  0.085936	
6.41995	  0.521927	  0.565772	  0.085056	
6.45322	  0.539022	  0.546036	  0.083616	
6.48648	  0.554669	  0.527079	  0.082087	
6.51974	  0.568826	  0.512604	  0.080855	
6.55301	  0.581324	  0.504147	  0.080125	
6.58627	  0.591336	  0.501346	  0.079917	
6.61954	  0.597962	  0.503103	  0.080169	
6.6528	  0.601338	  0.508729	  0.080851	
6.68606	  0.603121	  0.518263	  0.081996	
6.71933	  0.605782	  0.531835	  0.083600	
6.75259	  0.611142	  0.548757	  0.085490	
6.78586	  0.619251	  0.567174	  0.087296	
6.81912	  0.628490	  0.584616	  0.088603	
6.85238	  0.636761	  0.599078	  0.089171	
6.88565	  0.642626	  0.609926	  0.089040	
6.91891	  0.645498	  0.618000	  0.088467	
6.95218	  0.645227	  0.624786	  0.087754	
6.98544	  0.642008	  0.631129	  0.087122	
7.0187	  0.636692	  0.636400	  0.086647	
7.05197	  0.630676	  0.638806	  0.086259	
7.08523	  0.625039	  0.636642	  0.085806	
7.1185	  0.619788	  0.629459	  0.085191	
7.15176	  0.614163	  0.618201	  0.084507	
7.18502	  0.607559	  0.604415	  0.084031	
7.21829	  0.599854	  0.589559	  0.084037	
7.25155	  0.590836	  0.575097	  0.084590	
7.28482	  0.579755	  0.562950	  0.085517	
7.31808	  0.566023	  0.555240	  0.086541	
7.35134	  0.550600	  0.553090	  0.087436	
7.38461	  0.536521	  0.555634	  0.088053	
7.41787	  0.527545	  0.560497	  0.088300	
7.45114	  0.525830	  0.565411	  0.088162	
7.4844	  0.530669	  0.569353	  0.087768	
7.51766	  0.539311	  0.572292	  0.087369	
7.55093	  0.548812	  0.574371	  0.087187	
7.58419	  0.557146	  0.575668	  0.087254	
7.61746	  0.563099	  0.576426	  0.087382	
7.65072	  0.565893	  0.576974	  0.087305	
7.68398	  0.565414	  0.577339	  0.086866	
7.71725	  0.562758	  0.577231	  0.086098	
7.75051	  0.560218	  0.576508	  0.085156	
7.78378	  0.560403	  0.575341	  0.084161	
7.81704	  0.565072	  0.573699	  0.083098	
7.8503	  0.574496	  0.570757	  0.081846	
7.88357	  0.587564	  0.565075	  0.080303	
7.91683	  0.602170	  0.555608	  0.078467	
7.9501	  0.615404	  0.542775	  0.076446	
7.98336	  0.623775	  0.528712	  0.074435	
8.01662	  0.624140	  0.516477	  0.072689	
8.04989	  0.615298	  0.508759	  0.071460	
8.08315	  0.599188	  0.506899	  0.070865	
8.11642	  0.580497	  0.510618	  0.070769	
8.14968	  0.564745	  0.518269	  0.070820	
8.18294	  0.556054	  0.527186	  0.070671	
8.21621	  0.555756	  0.534075	  0.070224	
8.24947	  0.562275	  0.535777	  0.069714	
8.28274	  0.572080	  0.530624	  0.069571	
8.316	  0.581178	  0.519662	  0.070171	
8.34926	  0.586274	  0.506439	  0.071640	
8.38253	  0.585127	  0.494918	  0.073797	
8.41579	  0.576558	  0.486925	  0.076211	
8.44906	  0.560829	  0.481326	  0.078336	
8.48232	  0.540191	  0.475655	  0.079658	
8.51558	  0.518612	  0.468645	  0.079812	
8.54885	  0.500403	  0.461423	  0.078642	
8.58211	  0.488635	  0.456490	  0.076213	
8.61538	  0.484287	  0.455584	  0.072810	
8.64864	  0.486316	  0.458289	  0.068915	
8.6819	  0.492395	  0.462476	  0.065123	
8.71517	  0.500081	  0.465990	  0.062019	
8.74843	  0.507928	  0.467972	  0.060051	
8.7817	  0.515764	  0.468754	  0.059423	
8.81496	  0.523887	  0.468903	  0.060050	
8.84822	  0.532018	  0.468646	  0.061591	
8.88149	  0.539125	  0.468080	  0.063571	
8.91475	  0.544245	  0.467413	  0.065559	
8.94802	  0.547378	  0.466662	  0.067290	
8.98128	  0.549535	  0.465250	  0.068673	
9.01454	  0.551788	  0.462224	  0.069722	
9.04781	  0.554027	  0.457062	  0.070493	
9.08107	  0.554403	  0.450234	  0.071071	
9.11434	  0.550094	  0.442925	  0.071554	
9.1476	  0.539011	  0.436180	  0.071981	
9.18086	  0.521269	  0.430363	  0.072255	
9.21413	  0.499209	  0.425394	  0.072167	
9.24739	  0.475977	  0.421485	  0.071553	
9.28066	  0.453958	  0.419547	  0.070462	
9.31392	  0.434513	  0.420789	  0.069171	
9.34718	  0.418887	  0.425769	  0.068009	
9.38045	  0.408824	  0.433754	  0.067145	
9.41371	  0.405909	  0.443015	  0.066517	
9.44698	  0.410356	  0.451789	  0.065944	
9.48024	  0.420482	  0.459000	  0.065297	
9.5135	  0.433017	  0.464141	  0.064559	
9.54677	  0.443724	  0.466726	  0.063749	
9.58003	  0.448347	  0.466153	  0.062823	
9.6133	  0.444186	  0.462065	  0.061683	
9.64656	  0.431670	  0.454516	  0.060280	
9.67982	  0.414428	  0.443618	  0.058699	
9.71309	  0.397355	  0.429321	  0.057158	
9.74635	  0.384082	  0.411963	  0.055912	
9.77962	  0.375887	  0.393155	  0.055133	
9.81288	  0.372583	  0.375848	  0.054826	
9.84614	  0.374038	  0.363093	  0.054819	
9.87941	  0.380637	  0.356384	  0.054875	
9.91267	  0.392278	  0.355022	  0.054838	
9.94594	  0.407116	  0.357008	  0.054723	
9.9792	  0.421606	  0.360551	  0.054659	
10.0125	  0.432171	  0.364798	  0.054736	
10.0457	  0.437129	  0.369402	  0.054889	
10.079	  0.437138	  0.373818	  0.054917	
10.1123	  0.433889	  0.377320	  0.054629	
10.1455	  0.428531	  0.379679	  0.054000	
10.1788	  0.421401	  0.381649	  0.053233	
10.212	  0.413037	  0.384693	  0.052681	
10.2453	  0.405006	  0.390222	  0.052672	
10.2786	  0.399406	  0.398961	  0.053337	
10.3118	  0.397485	  0.410754	  0.054552	
10.3451	  0.398744	  0.424766	  0.056050	
10.3784	  0.401328	  0.439754	  0.057594	
10.4116	  0.403277	  0.454198	  0.059069	
10.4449	  0.403677	  0.466356	  0.060413	
10.4782	  0.403055	  0.474549	  0.061496	
10.5114	  0.402905	  0.477647	  0.062080	
10.5447	  0.404742	  0.475317	  0.061955	
10.578	  0.409249	  0.467712	  0.061098	
10.6112	  0.415988	  0.455053	  0.059717	
10.6445	  0.423643	  0.437820	  0.058117	
10.6777	  0.430394	  0.417410	  0.056543	
10.711	  0.434170	  0.396222	  0.055107	
10.7443	  0.432967	  0.376512	  0.053816	
10.7775	  0.425500	  0.358908	  0.052617	
10.8108	  0.411915	  0.342140	  0.051430	
10.8441	  0.393966	  0.324444	  0.050196	
10.8773	  0.374327	  0.305457	  0.048920	
10.9106	  0.355460	  0.286895	  0.047662	
10.9439	  0.338859	  0.271427	  0.046473	
10.9771	  0.325241	  0.260620	  0.045356	
11.0104	  0.315392	  0.253562	  0.044298	
11.0436	  0.310640	  0.247285	  0.043363	
11.0769	  0.312006	  0.238750	  0.042715	
11.1102	  0.318411	  0.226871	  0.042544	
11.1434	  0.325712	  0.212989	  0.042936	
11.1767	  0.328166	  0.199569	  0.043826	
11.21	  0.321831	  0.188394	  0.045060	
11.2432	  0.307318	  0.179739	  0.046497	
11.2765	  0.289475	  0.172939	  0.048022	
11.3098	  0.274095	  0.167453	  0.049474	
11.343	  0.264264	  0.163279	  0.050614	
11.3763	  0.259105	  0.160445	  0.051223	
11.4096	  0.255515	  0.158262	  0.051267	
11.4428	  0.251101	  0.155291	  0.050978	
11.4761	  0.245876	  0.150175	  0.050728	
11.5093	  0.241659	  0.142610	  0.050805	
11.5426	  0.240053	  0.133611	  0.051287	
11.5759	  0.240756	  0.124868	  0.052103	
11.6091	  0.241392	  0.117731	  0.053156	
11.6424	  0.238889	  0.112570	  0.054314	
11.6757	  0.231472	  0.108811	  0.055318	
11.7089	  0.219926	  0.105485	  0.055743	
11.7422	  0.207218	  0.101817	  0.055174	
11.7755	  0.196732	  0.097518	  0.053472	
11.8087	  0.190388	  0.092740	  0.050889	
11.842	  0.187975	  0.087857	  0.047899	
11.8752	  0.187867	  0.083265	  0.044925	
11.9085	  0.188300	  0.079291	  0.042205	
11.9418	  0.188236	  0.076179	  0.039895	
11.975	  0.187573	  0.074116	  0.038213	
12.0083	  0.186881	  0.073213	  0.037400	
12.0416	  0.186941	  0.073437	  0.037500	
12.0748	  0.188251	  0.074548	  0.038205	
12.1081	  0.190684	  0.076108	  0.038972	
12.1414	  0.193546	  0.077605	  0.039352	
12.1746	  0.196032	  0.078631	  0.039258	
12.2079	  0.197715	  0.079016	  0.038949	
12.2412	  0.198655	  0.078862	  0.038770	
12.2744	  0.199156	  0.078447	  0.038865	
12.3077	  0.199531	  0.078074	  0.039097	
12.3409	  0.200061	  0.077936	  0.039191	
12.3742	  0.200862	  0.078072	  0.038965	
12.4075	  0.201583	  0.078391	  0.038433	
12.4407	  0.201351	  0.078738	  0.037736	
12.474	  0.199453	  0.078952	  0.036999	
12.5073	  0.196399	  0.078911	  0.036270	
12.5405	  0.194209	  0.078548	  0.035590	
12.5738	  0.195255	  0.077841	  0.035060	
12.6071	  0.200361	  0.076781	  0.034795	
12.6403	  0.207847	  0.075368	  0.034760	
12.6736	  0.214557	  0.073635	  0.034704	
12.7068	  0.218128	  0.071728	  0.034311	
12.7401	  0.218585	  0.069926	  0.033481	
12.7734	  0.217954	  0.068565	  0.032478	
12.8066	  0.218394	  0.067860	  0.031777	
12.8399	  0.220621	  0.067782	  0.031726	
12.8732	  0.223880	  0.068095	  0.032298	
12.9064	  0.227079	  0.068552	  0.033142	
12.9397	  0.229686	  0.069082	  0.033852	
12.973	  0.231437	  0.069799	  0.034218	
13.0062	  0.231238	  0.070812	  0.034241	
13.0395	  0.226541	  0.071992	  0.033968	
13.0728	  0.214099	  0.072896	  0.033320	
13.106	  0.191709	  0.072920	  0.032105	
13.1393	  0.159584	  0.071619	  0.030183	
13.1725	  0.120343	  0.068967	  0.027616	
13.2058	  0.077904	  0.065411	  0.024694	
